<?xml version="1.0" encoding="UTF-8" standalone="no"?>
<svg
   xmlns:dc="http://purl.org/dc/elements/1.1/"
   xmlns:cc="http://creativecommons.org/ns#"
   xmlns:rdf="http://www.w3.org/1999/02/22-rdf-syntax-ns#"
   xmlns:svg="http://www.w3.org/2000/svg"
   xmlns="http://www.w3.org/2000/svg"
   xmlns:xlink="http://www.w3.org/1999/xlink"
   xmlns:sodipodi="http://sodipodi.sourceforge.net/DTD/sodipodi-0.dtd"
   xmlns:inkscape="http://www.inkscape.org/namespaces/inkscape"
   version="1.1"
   preserveAspectRatio="xMidYMid meet"
   viewBox="0 0 250 250"
   width="250"
   height="250"
   id="svg3881"
   sodipodi:docname="icon.svg"
   inkscape:version="0.92.2 (unknown)">
  <metadata
     id="metadata3885">
    <rdf:RDF>
      <cc:Work
         rdf:about="">
        <dc:format>image/svg+xml</dc:format>
        <dc:type
           rdf:resource="http://purl.org/dc/dcmitype/StillImage" />
        <dc:title></dc:title>
      </cc:Work>
    </rdf:RDF>
  </metadata>
  <sodipodi:namedview
     pagecolor="#ffffff"
     bordercolor="#666666"
     borderopacity="1"
     objecttolerance="10"
     gridtolerance="10"
     guidetolerance="10"
     inkscape:pageopacity="0"
     inkscape:pageshadow="2"
     inkscape:window-width="1918"
     inkscape:window-height="1078"
     id="namedview3883"
     showgrid="true"
     inkscape:zoom="7.8488853"
     inkscape:cx="58.263693"
     inkscape:cy="267.59125"
     inkscape:window-x="0"
     inkscape:window-y="0"
     inkscape:window-maximized="0"
     inkscape:current-layer="svg3881" />
  <defs
     id="defs3819">
    <path
       d="m 413.86,171.58 c 11.12,0 20.14,9.02 20.14,20.14 0,45.97 0,163.75 0,209.72 0,11.13 -9.02,20.14 -20.14,20.14 -45.97,0 -163.75,0 -209.72,0 -11.12,0 -20.14,-9.01 -20.14,-20.14 0,-45.97 0,-163.75 0,-209.72 0,-11.12 9.02,-20.14 20.14,-20.14 45.97,0 163.75,0 209.72,0 z"
       id="b4AHHlAzNQ"
       inkscape:connector-curvature="0" />
    <path
       d="m 272.28,230.05 c 0,16.55 -13.44,30 -30,30 -16.56,0 -30,-13.45 -30,-30 0,-16.56 13.44,-30 30,-30 16.56,0 30,13.44 30,30 z"
       id="bBQFmr0Sa"
       inkscape:connector-curvature="0" />
    <path
       d="m 252.22,271.21 c 8.32,0 15.06,6.74 15.06,15.06 0,20.98 0,68.89 0,89.88 0,8.32 -6.74,15.06 -15.06,15.06 -6.99,0 -12.9,0 -19.88,0 -8.32,0 -15.06,-6.74 -15.06,-15.06 0,-20.99 0,-68.9 0,-89.88 0,-8.32 6.74,-15.06 15.06,-15.06 6.98,0 12.89,0 19.88,0 z"
       id="a2lyMRnF1"
       inkscape:connector-curvature="0" />
    <path
       d="m 318.94,271.21 c 8.32,0 15.06,6.74 15.06,15.06 0,20.98 0,68.89 0,89.88 0,8.32 -6.74,15.06 -15.06,15.06 -6.98,0 -12.9,0 -19.88,0 -8.32,0 -15.06,-6.74 -15.06,-15.06 0,-20.99 0,-68.9 0,-89.88 0,-8.32 6.74,-15.06 15.06,-15.06 6.98,0 12.9,0 19.88,0 z"
       id="c4QfZEdcGR"
       inkscape:connector-curvature="0" />
    <path
       d="m 339,230.05 c 0,16.55 -13.44,30 -30,30 -16.56,0 -30,-13.45 -30,-30 0,-16.56 13.44,-30 30,-30 16.56,0 30,13.44 30,30 z"
       id="a1gIi6iRI7"
       inkscape:connector-curvature="0" />
    <path
       d="m 385.66,271.21 c 8.32,0 15.06,6.74 15.06,15.06 0,20.98 0,68.89 0,89.88 0,8.32 -6.74,15.06 -15.06,15.06 -6.98,0 -12.89,0 -19.88,0 -8.32,0 -15.06,-6.74 -15.06,-15.06 0,-20.99 0,-68.9 0,-89.88 0,-8.32 6.74,-15.06 15.06,-15.06 6.99,0 12.9,0 19.88,0 z"
       id="acIqlOwQV"
       inkscape:connector-curvature="0" />
    <path
       d="m 405.72,230.05 c 0,16.55 -13.44,30 -30,30 -16.56,0 -30,-13.45 -30,-30 0,-16.56 13.44,-30 30,-30 16.56,0 30,13.44 30,30 z"
       id="f1lOVrTKF0"
       inkscape:connector-curvature="0" />
  </defs>
  <g
     id="g3879"
     transform="matrix(0.998955,0,0,1.000518,-183.66535,-171.66888)">
    <g
       id="g3877">
      <g
         id="g3827">
        <use
           xlink:href="#b4AHHlAzNQ"
           id="use3821"
           style="opacity:1;fill:#4a5056;fill-opacity:1"
           x="0"
           y="0"
           width="100%"
           height="100%" />
        <g
           id="g3825">
          <use
             xlink:href="#b4AHHlAzNQ"
             id="use3823"
             style="opacity:1;fill-opacity:0;stroke:#291919;stroke-width:0;stroke-opacity:1"
             x="0"
             y="0"
             width="100%"
             height="100%" />
        </g>
      </g>
      <g
         id="g3835">
        <use
           xlink:href="#bBQFmr0Sa"
           id="use3829"
           style="opacity:1;fill:#ffffff;fill-opacity:1"
           x="0"
           y="0"
           width="100%"
           height="100%" />
        <g
           id="g3833">
          <use
             xlink:href="#bBQFmr0Sa"
             id="use3831"
             style="opacity:1;fill-opacity:0;stroke:#291919;stroke-width:0;stroke-opacity:1"
             x="0"
             y="0"
             width="100%"
             height="100%" />
        </g>
      </g>
      <g
         id="g3843">
        <use
           xlink:href="#a2lyMRnF1"
           id="use3837"
           style="opacity:1;fill:#ffffff;fill-opacity:1"
           x="0"
           y="0"
           width="100%"
           height="100%" />
        <g
           id="g3841">
          <use
             xlink:href="#a2lyMRnF1"
             id="use3839"
             style="opacity:1;fill-opacity:0;stroke:#291919;stroke-width:0;stroke-opacity:1"
             x="0"
             y="0"
             width="100%"
             height="100%" />
        </g>
      </g>
      <g
         id="g3851">
        <use
           xlink:href="#c4QfZEdcGR"
           id="use3845"
           style="opacity:1;fill:#ffffff;fill-opacity:1"
           x="0"
           y="0"
           width="100%"
           height="100%" />
        <g
           id="g3849">
          <use
             xlink:href="#c4QfZEdcGR"
             id="use3847"
             style="opacity:1;fill-opacity:0;stroke:#291919;stroke-width:0;stroke-opacity:1"
             x="0"
             y="0"
             width="100%"
             height="100%" />
        </g>
      </g>
      <g
         id="g3859">
        <use
           xlink:href="#a1gIi6iRI7"
           id="use3853"
           style="opacity:1;fill:#ffffff;fill-opacity:1"
           x="0"
           y="0"
           width="100%"
           height="100%" />
        <g
           id="g3857">
          <use
             xlink:href="#a1gIi6iRI7"
             id="use3855"
             style="opacity:1;fill-opacity:0;stroke:#291919;stroke-width:0;stroke-opacity:1"
             x="0"
             y="0"
             width="100%"
             height="100%" />
        </g>
      </g>
      <g
         id="g3867">
        <use
           xlink:href="#acIqlOwQV"
           id="use3861"
           style="opacity:1;fill:#ffffff;fill-opacity:1"
           x="0"
           y="0"
           width="100%"
           height="100%" />
        <g
           id="g3865">
          <use
             xlink:href="#acIqlOwQV"
             id="use3863"
             style="opacity:1;fill-opacity:0;stroke:#291919;stroke-width:0;stroke-opacity:1"
             x="0"
             y="0"
             width="100%"
             height="100%" />
        </g>
      </g>
      <g
         id="g3875">
        <use
           xlink:href="#f1lOVrTKF0"
           id="use3869"
           style="opacity:1;fill:#ffffff;fill-opacity:1"
           x="0"
           y="0"
           width="100%"
           height="100%" />
        <g
           id="g3873">
          <use
             xlink:href="#f1lOVrTKF0"
             id="use3871"
             style="opacity:1;fill-opacity:0;stroke:#291919;stroke-width:0;stroke-opacity:1"
             x="0"
             y="0"
             width="100%"
             height="100%" />
        </g>
      </g>
    </g>
  </g>
</svg>
